<svg xmlns="http://www.w3.org/2000/svg" xmlns:xlink="http://www.w3.org/1999/xlink" version="1.1" x="0px" y="0px" viewBox="0 0 50 62.5" style="enable-background:new 0 0 50 50;" xml:space="preserve"><path d="M24.9453125,26.9545898c-4.4013672,0-7.9814453,3.5805664-7.9814453,7.9819336  c0,4.4008789,3.5800781,7.9814453,7.9814453,7.9814453s7.9814453-3.5805664,7.9814453-7.9814453  C32.9267578,30.5351563,29.3466797,26.9545898,24.9453125,26.9545898z M24.9453125,42.4179688  c-4.125,0-7.4814453-3.355957-7.4814453-7.4814453s3.3564453-7.4819336,7.4814453-7.4819336  s7.4814453,3.3564453,7.4814453,7.4819336S29.0703125,42.4179688,24.9453125,42.4179688z M44.1875,16.3671875  c-0.4521484-0.2436523-1.3583984-0.7207031-1.8710938-0.6816406c-0.4423828,0.0161133-1.1992188,0.4555664-1.5976563,0.7070313  c-0.421936,0.0307617-0.7902222,0.0697632-1.1271362,0.1131592l-0.03479-3.6134033l5.3670044,0.9758301l0.1796875-0.9833984  l-7.9277344-1.4414063l-0.4476318-1.9128418c1.359436-0.2327271,2.6148071-0.5664063,3.5667725-0.9655762  c1.3261719-0.5556641,1.9228516-1.1499023,1.8251953-1.8164063c-0.2294922-1.546875-4.1953125-1.3862305-6.5048828-1.0454102  c-1.5673828,0.2304688-3.0244141,0.6064453-4.1015625,1.0581055C30.1875,7.3168945,29.5908203,7.9111328,29.6884766,8.5776367  c0.1445313,0.9760742,1.7763672,1.2719727,3.5419922,1.2719727c0.8580322,0,1.7400513-0.0713501,2.5055542-0.1669312  l0.6155396,2.6268921l2.2034302,0.4006348l0.038147,3.9620361c-1.8317871,0.3929443-1.84021,0.9899902-1.84021,1.2232666v0.5029297  c0,0.263855,0.0088501,0.7468262,1.8674927,1.1765137l0.0369873,3.8552856  c-1.0469971-0.0691528-2.4035034-0.0725708-3.7623901-0.0186768c0.8347168-0.2474365,1.4851074-0.5200195,1.7329102-0.7826538  c0.1435547-0.152832,0.4814453-0.5117188,0.2753906-2.6679688c-0.1542969-1.5981445-0.8056641-5.3295898-1.7431641-6.0039063  c-1.0537109-0.7592773-7.5400391,0.4707031-8.4628906,1.6035156c-0.4553833,0.5588989-0.3473511,2.2077637-0.1611328,3.574707  h-2.3658447c0.0627441-0.4160156,0.109314-0.7912598,0.1383057-1.0913086  c0.2080078-2.1645508-0.1298828-2.5239258-0.2753906-2.6777344c-0.9296875-0.9863281-7.4794922-2.1230469-8.5439453-1.4804688  c-0.6445313,0.3876953-1.1113281,2.3662109-1.3896484,3.9575195c-0.1060181,0.6075439-0.2231445,1.4100952-0.2806396,2.1859131  c-1.5562134-0.1430054-3.3134766-0.2445068-4.506897-0.140564l0.0544434-5.6102905l0.7848511-0.3413086l0.5715332-2.4353638  c0.0579224,0.0128784,0.1124878,0.0281372,0.1706543,0.0408325c0.5146484,0.1118164,3.4902344,0.737793,5.8115234,0.737793  c1.4560547,0,2.6542969-0.246582,2.8232422-1.0209961v-0.0009766c0.4365234-2.0087891-6.8955078-3.6679688-7.7333984-3.8505859  C9.7070313,6.953125,7.703125,6.6918945,6.1523438,6.6728516C4.265625,6.6347656,3.3164063,6.9736328,3.1611328,7.690918  C3.0039063,8.4091797,3.7333984,9.0991211,5.4570313,9.8623047c1.1533203,0.5111084,2.6537476,0.9967651,4.2938843,1.4067993  l-0.4589233,1.9511108l-7.1425781,3.1064453l0.3984375,0.9169922l5.8143311-2.5285645l-0.052002,5.3614502  c-0.1212769,0.0469971-0.225647,0.0994263-0.2906494,0.1636963C7.0527344,21.1982422,6.0117188,30.3666992,7.078125,31.6352539  c0.1029663,0.1225586,0.2602539,0.3040161,1.1173096,0.4926758l-0.0521851,5.4371338L8.125,37.5395508l-5.6630859,4.0625  l0.5820313,0.8125l5.6031494-4.0194702l5.098877,3.6577759l-0.7987061,2.3504639l0.9472656,0.3212891l2.0983276-6.1752319  c1.4342651,3.5407104,4.9038696,6.0473022,8.9524536,6.0473022c4.0930786,0,7.5914307-2.5634155,8.9959717-6.1658325  l0.4098511,1.2061768l-0.9790649,0.7096558l0.5859375,0.8095703l0.7296143-0.5288696l1.3592529,4.000061l0.9472656-0.3212891  l-1.4588623-4.2932129l3.7728271-2.7348022l5.3500977,3.8781128l0.5859375-0.8095703l-5.4633179-3.960144l-0.0182495-1.9088135  l2.8155518-4.0665283l4.3056641,6.218689l0.8222656-0.5693359l-4.6279297-6.6841431v-8.8754272h-0.0406494  c0.4054565-0.1484985,0.8718872-0.4197388,1.1568604-0.5996094c3.9648438-0.2890625,3.9648438-1.2011719,3.9648438-1.5029297  v-0.5029297C48.1591797,17.5556641,48.1591797,16.8515625,44.1875,16.3671875z M30.6777344,8.4663086  c0.1152344-0.3852539,1.9130859-1.3071289,5.0839844-1.7739258c1.0800781-0.1586914,2.0224609-0.2211914,2.8046875-0.2211914  c1.4453125,0,2.34375,0.2133789,2.5498047,0.4248047C40.90625,7.300293,39.1220703,8.1811523,36.046875,8.6337891  C32.8759766,9.1015625,30.8886719,8.7348633,30.6777344,8.4663086z M4.171875,7.9116211  c0.5166016-0.3266602,3.2363281-0.4370117,7.4101563,0.4736328c4.171875,0.9091797,6.5986328,2.1411133,6.9355469,2.6533203  c-0.5195313,0.3261719-3.2382813,0.4360352-7.4111328-0.4736328C6.9345703,9.6557617,4.5068359,8.4233398,4.171875,7.9116211z   M40.9150391,17.3813477l0.1289063-0.0087891l0.109375-0.0708008c0.4794922-0.3115234,1.0429688-0.6000977,1.1982422-0.6171875  c0.1816406,0.0009766,0.8544922,0.2836914,1.4394531,0.6054688l0.1816406,0.0585938  c1.0473022,0.1248779,2.2478638,0.354126,2.8685913,0.5650024c-1.9133301,0.277771-7.3179932,0.284668-8.9351807,0.0014648  C38.4028931,17.6974487,39.6627197,17.4669189,40.9150391,17.3813477z M39.8476563,24.5649414  c0.0124512,0.0109253,0.0232544,0.0328979,0.0352173,0.0473633c-0.4116211,0.1133423-1.291687,0.2164307-2.3672485,0.298584  c-0.0371704-0.2648315-0.0716553-0.4478149-0.1015015-0.5665283C38.6245728,24.3459473,39.5794067,24.4091797,39.8476563,24.5649414  z M37.7941895,30.052124c0.003479-0.114563,0.0056763-0.2352905,0.0062256-0.3620605  c1.0244141,0.0073853,1.8754883,0.0412598,2.2597046,0.1057739C39.951355,29.8444824,39.5045776,29.9719849,37.7941895,30.052124z   M33.1228027,29.817688c0.1202393-0.008667,0.2498779-0.0166626,0.3805542-0.0245361  c0.0134277,0.1170654,0.0265503,0.2255859,0.0394897,0.3251343c-0.0794678-0.0003662-0.1564941-0.0005493-0.237854-0.0009766  C33.2463379,30.0159912,33.1849976,29.916626,33.1228027,29.817688z M34.0467529,30.1203003  c-0.013855-0.1026001-0.0285034-0.2289429-0.0430908-0.354248c1.0126343-0.0491943,2.2111816-0.076416,3.2940063-0.0773926  c-0.0007935,0.1474609-0.0028076,0.2744141-0.0065308,0.3844604C36.4714966,30.1026001,35.4124756,30.12146,34.0467529,30.1203003z   M37.7966309,29.1912842c-0.0045166-0.2830811-0.0123291-0.5595703-0.0202637-0.7830811l-0.5,0.0175781  c0.0101929,0.2851563,0.0158081,0.5343018,0.0193481,0.7639771c-1.1333618,0.0014648-2.3625488,0.0336914-3.3453979,0.0807495  c-0.0280151-0.2774048-0.055603-0.5691528-0.0802002-0.8735352l-0.4980469,0.0400391  c0.0245361,0.3011475,0.0513916,0.5871582,0.0786743,0.8598633c-0.2438965,0.0142212-0.4562988,0.0294189-0.6449585,0.0449219  c-0.6932373-0.9711304-1.557312-1.8106689-2.5541992-2.4689941c-0.0393066-0.6688843-0.0430298-1.1276245-0.0306396-1.4329834  c0.5231934,0.1147461,1.4656982,0.1636963,2.5827637,0.1636963c0.1427612,0,0.2902832-0.0014038,0.4379883-0.0029297  c-0.0010986,0.2124634,0.0003052,0.4447632,0.0083008,0.7236328l0.5-0.0146484  c-0.0080566-0.2791138-0.0095825-0.5090332-0.0084839-0.7169189c1.0986328-0.022522,2.2758179-0.0809326,3.3342285-0.1608887  c0.0222168,0.2024536,0.045105,0.4292603,0.0687866,0.7127686l0.4980469-0.0419922  c-0.0231934-0.2785645-0.0457764-0.505249-0.0680542-0.7106323c1.1165161-0.0950317,2.0376587-0.2125244,2.5009155-0.3323364  c0.2746582,1.0281372,0.3015137,3.253479,0.1347656,4.2658081C39.7483521,29.2391968,38.8459473,29.1993408,37.7966309,29.1912842z   M30.2658081,24.9586792c0.0042725-0.022644,0.008606-0.045105,0.0125122-0.06073  c0.3980713-0.142334,1.6022949-0.2855225,3.0259399-0.3910522c-0.0211182,0.1400757-0.0391846,0.3323364-0.0508423,0.5895996  C31.8137207,25.1149902,30.6345825,25.0759277,30.2658081,24.9586792z M36.8930054,24.3477783  c0.0153198,0.0338745,0.0612793,0.1672363,0.1230469,0.5982666c-1.0372314,0.0695801-2.1914673,0.1192017-3.2634888,0.1415405  c0.0144043-0.3060913,0.0391846-0.4985962,0.0635986-0.6164551C34.8328857,24.4047852,35.9177246,24.359375,36.8930054,24.3477783z   M33.946106,22.6460571c-0.8653564,0.2079468-1.8853149,0.3989868-2.8118896,0.5262451  c-0.0687866-0.1630249-0.1435547-0.3674316-0.2268066-0.6412354c0.9672852-0.1870117,2.0657959-0.3676147,3.0095215-0.5012207  C33.9365234,22.2744751,33.9450684,22.475708,33.946106,22.6460571z M30.6187134,23.2373657  c-0.9465942,0.1092529-1.723877,0.1356201-2.0083618,0.0204468c-0.0220947-0.0241089-0.0449219-0.0669556-0.0674438-0.1014404  c0.1881714-0.1398926,0.9219971-0.3317261,1.8724365-0.5275269C30.4814453,22.8492432,30.5499878,23.0565796,30.6187134,23.2373657z   M34.4470825,22.5184937c-0.0048218-0.1625977-0.0159912-0.3494263-0.032959-0.5565186  c0.6990356-0.0915527,1.2577515-0.1470947,1.5239258-0.1439819c-0.0120239,0.0446777-0.0222778,0.0953979-0.0386353,0.1253662  C35.7352905,22.1175537,35.1787109,22.3212891,34.4470825,22.5184937z M35.9920044,21.3364868  c-0.3334351-0.0041504-0.9154663,0.0458984-1.6276245,0.1340332c-0.0369873-0.3421631-0.081543-0.7072754-0.1417236-1.111145  l-0.4941406,0.0732422c0.0593262,0.4001465,0.1035156,0.7636719,0.1400146,1.1028442  c-0.9758301,0.1330566-2.0982056,0.317749-3.0963135,0.5187378c-0.0723267-0.2652588-0.1463623-0.550293-0.2224121-0.8706055  l-0.4863281,0.1152344c0.0561523,0.2371216,0.1317139,0.5431519,0.2172241,0.8590088  c-0.8798828,0.1903687-1.6049194,0.3865967-1.9488525,0.5581055c-0.5019531-1.3354492-1.0137329-4.4802856-0.9663696-5.8895874  c0.4077759-0.0050659,1.0914307-0.0953369,1.8896484-0.2297363c0.0246582,0.2855225,0.0599976,0.6016846,0.1062012,0.9487915  l0.4960938-0.0664063c-0.0509033-0.382019-0.083374-0.6950684-0.1063232-0.9684448  c0.9620972-0.1730957,2.0262451-0.3925171,2.9503784-0.5971069c0.1033325,0.2876587,0.2153931,0.6436157,0.3346558,1.0880127  l0.4824219-0.1298828c-0.1159058-0.4321899-0.2251587-0.7727661-0.3295288-1.067749  c0.8117676-0.1850586,1.4527588-0.3452759,1.7238159-0.4307251C35.4464722,16.7398071,36.0211792,19.9285889,35.9920044,21.3364868z   M29.730835,15.3303833c0.7759399-0.1936035,1.6434326-0.366272,2.4341431-0.4854126  c0.0847778,0.0944824,0.2026978,0.2734375,0.3469849,0.5966797c-0.883606,0.1923218-1.8881836,0.3973999-2.7942505,0.5631104  C29.7053833,15.6891479,29.7142944,15.477417,29.730835,15.3303833z M34.5751953,14.7675781  c0.039856,0.0318604,0.0812988,0.0854492,0.1233521,0.1511841c-0.2767334,0.0845947-0.9018555,0.2372437-1.6906128,0.4137573  c-0.1035767-0.2434082-0.197937-0.4284668-0.2821655-0.56427C33.6103516,14.6602173,34.3251953,14.6401978,34.5751953,14.7675781z   M29.2282104,15.4623413c-0.0105591,0.1796875-0.0108643,0.3892822-0.0006104,0.6299438  c-0.7819214,0.135437-1.4375,0.2276001-1.8030396,0.2382202c0.0143433-0.052124,0.0283203-0.1054688,0.0480957-0.1381226  C27.6524048,15.9714355,28.3424683,15.7075195,29.2282104,15.4623413z M26.6933594,20.1557617  c0.2783203,1.590332,0.7451172,3.5673828,1.3886719,3.9545898c0.2167969,0.1298828,0.6572266,0.1865234,1.2314453,0.1865234  c0.0455322,0,0.0967407-0.0025024,0.1439209-0.0032349c-0.1509399,0.2242432-0.2746582,0.6830444-0.2339478,1.9943848  c-0.878479-0.4365234-1.8307495-0.7406006-2.8347778-0.8921509v-5.2606201h0.3013306  C26.6911011,20.1416016,26.6922607,20.1494751,26.6933594,20.1557617z M25.0966797,20.1352539h0.2919922v5.1630859  c-0.0974731-0.0044556-0.1937866-0.0132446-0.2919922-0.0147705V20.1352539z M24.0966797,20.1352539v5.1836548  c-1.5708008,0.1376953-3.031189,0.6550293-4.2973022,1.4564209c0.0991821-0.7974854,0.2021484-1.7458496,0.2527466-2.5706787  c0.4286499,0.0430298,0.8342896,0.0687866,1.1900635,0.0687866c0.6191406,0,1.0976563-0.0712891,1.3242188-0.234375  c0.62677-0.4507446,1.1254272-2.270752,1.4333496-3.9038086H24.0966797z M14.8857422,21.8125057  c-0.0211182-0.0347958-0.036438-0.0903988-0.0515747-0.1466122c0.3023071,0.0090332,0.803833,0.0744629,1.4075928,0.1726685  c-0.0183716,0.213562-0.0297241,0.4022827-0.0359497,0.5713501C15.5352783,22.2041626,15.03302,21.9932861,14.8857422,21.8125057z   M16.7026978,22.5532837c0.0028076-0.1768799,0.0123291-0.3821411,0.0332642-0.6313477  c0.9362183,0.1641235,2.0267334,0.3830566,2.994873,0.5916748c-0.0822754,0.2674561-0.156189,0.4680786-0.2236938,0.6257324  C18.5797729,22.9983521,17.5563354,22.7849121,16.7026978,22.5532837z M20.020752,23.2105103  c0.0673828-0.1746826,0.1345215-0.3754272,0.199646-0.5897827c0.8803711,0.1948853,1.59198,0.3665771,1.8884277,0.4576416  c-0.0390625,0.0599976-0.0776367,0.1117554-0.1146851,0.1413574C21.7293091,23.3554077,20.9598999,23.3295288,20.020752,23.2105103z   M23.3329468,16.1754761c-0.3335571-0.0003662-1.0487671-0.0779419-1.9076538-0.1972046  c0.008606-0.2376709,0.0064087-0.4439697-0.0062866-0.6196899c0.9386597,0.2258911,1.6774292,0.4689331,1.8661499,0.6672974  C23.3052368,16.0620728,23.3188477,16.1195679,23.3329468,16.1754761z M20.9128418,15.2421875  c0.0177612,0.1391602,0.0299072,0.3458252,0.0195313,0.6657715c-0.9160767-0.1355591-1.9296875-0.3077393-2.8112793-0.4819336  c0.1426392-0.326355,0.2600098-0.5110474,0.3467407-0.6131592C19.2615356,14.9188232,20.1295166,15.0713501,20.9128418,15.2421875z   M17.9061279,14.7446289c-0.0845337,0.1402588-0.1793823,0.3326416-0.2825928,0.5797119  c-0.8509521-0.1804199-1.498291-0.3546753-1.6737061-0.4842529c0.022644-0.034668,0.0455933-0.0775757,0.067749-0.1018066  C16.2913818,14.6279907,17.0164185,14.6480103,17.9061279,14.7446289z M15.7392578,15.279541  c0.3117676,0.1557007,0.9368896,0.3318481,1.7095337,0.5057373c-0.1012573,0.2887573-0.2068481,0.6182861-0.3189087,1.0350342  l0.4824219,0.1298828c0.1156616-0.4295654,0.2244263-0.7762451,0.3250122-1.0587769  c0.9318237,0.1939697,1.9995117,0.3775635,2.9647827,0.5171509c-0.0224609,0.2838135-0.0559692,0.6138916-0.1101074,1.019165  l0.4960938,0.0664063c0.050354-0.3778076,0.0853271-0.7120361,0.1101074-1.0169067  c0.8499146,0.1135254,1.5759888,0.1853638,1.9748535,0.1853638c0.0050049,0,0.0078125-0.0004883,0.0126953-0.0004883  c0.0350342,1.4335938-0.5355225,4.6102295-1.0614014,5.9627686c-0.2905884-0.0924683-1.0336304-0.2762451-1.9649658-0.4852905  c0.0894165-0.3278809,0.1682739-0.6467896,0.2265625-0.8920288l-0.4863281-0.1152344  c-0.078064,0.3294067-0.1550903,0.6237793-0.2306519,0.8984985c-0.9904175-0.2160645-2.1090698-0.4416504-3.0817871-0.6087036  c0.0354614-0.3224487,0.0774536-0.6652832,0.1327515-1.0407715l-0.4941406-0.0732422  c-0.0551147,0.3723145-0.097229,0.7122192-0.1328735,1.0328979c-0.6369629-0.1004639-1.1744385-0.1653442-1.5170288-0.170166  C14.7263794,19.7547607,15.2376709,16.6132813,15.7392578,15.279541z M13.8190308,21.5422363  c-0.9047852-0.0822754-1.8070679-0.1551514-2.62146-0.213562c0.0474243-0.1873779,0.0922241-0.3383179,0.1345215-0.461731  c0.6941528,0.0253296,1.5057373,0.0751343,2.451416,0.1625977C13.7873535,21.211853,13.8005981,21.3811035,13.8190308,21.5422363z   M10.817749,20.8509521c-0.0427246,0.1367798-0.0853882,0.2727661-0.126709,0.4425049  c-0.9074097-0.0610962-1.6608887-0.1001587-2.1208496-0.1086426c0.0361328-0.0804443,0.0723267-0.1555786,0.1085205-0.1994629  C8.8565674,20.8931885,9.5924072,20.8268433,10.817749,20.8509521z M8.4006958,21.6826782  c0.3687134-0.0021362,1.15448,0.0350952,2.18573,0.104126c-0.0758057,0.3742676-0.1502686,0.7859497-0.222168,1.2820435  l0.4941406,0.0722656c0.0786133-0.5404663,0.1548462-0.967041,0.2277832-1.3199463  c0.8505859,0.0608521,1.8218994,0.1401978,2.8328857,0.2334595c0.0474243,0.1530151,0.1064453,0.2852173,0.1844482,0.3809204  c0.1887817,0.2318115,0.6135254,0.4672241,1.173645,0.6891479c-0.0067139,0.1185913-0.0127563,0.2348022-0.0203247,0.3577271  l0.4980469,0.0327148c0.0050659-0.0727539,0.0079956-0.1405029,0.0125122-0.2119141  c0.9490356,0.3214111,2.1497803,0.5991211,3.2896118,0.7741699c-0.0671997,1.1739502-0.2543335,2.6531982-0.3731689,3.5167847  c-1.032959,0.8823242-1.8728638,1.9790649-2.4615479,3.2193604c-0.4820557-0.0465698-0.9468994-0.0904541-1.3899536-0.1312256  c0.0675659-0.3703003,0.1391602-0.7883911,0.2125854-1.2457886l-0.4941406-0.0791016  c-0.0748291,0.468689-0.1487427,0.9016113-0.2179565,1.27948c-1.6508789-0.1486816-3.0101929-0.2545166-4.0752563-0.3170776  c0.012085-0.3583984,0.0308838-0.7821045,0.060791-1.3051758l-0.5-0.0283203  c-0.0282593,0.4945068-0.0459595,0.9180298-0.0588379,1.3063965c-1.0244141-0.0512085-1.7224731-0.0545044-2.083252-0.0084229  C7.4742432,28.3847046,7.8927612,23.5621948,8.4006958,21.6826782z M15.8319702,31.7623291  c-0.4226685-0.0151367-0.826416-0.0310059-1.2058716-0.0476685c0.034729-0.1530151,0.0726318-0.3347778,0.112793-0.538269  c0.4072266,0.0372314,0.8312988,0.0772095,1.2644043,0.1187744C15.9407349,31.4482422,15.8867798,31.6054688,15.8319702,31.7623291z   M10.2434692,31.4189453c-0.0032959-0.1566772-0.0033569-0.3546753,0.0008545-0.5994873  c1.0653687,0.0656128,2.4192505,0.1711426,3.9940186,0.3119507c-0.0436401,0.2194214-0.0838013,0.4070435-0.119812,0.55896  C12.4129028,31.6083984,11.1513672,31.5128784,10.2434692,31.4189453z M7.7565918,30.7652588  c0.2745361-0.0406494,0.9647827-0.0302734,1.9879761,0.0250854c-0.0038452,0.2158203-0.0040894,0.4049683-0.0015869,0.572876  c-1.5707397-0.1868286-1.8692627-0.3525391-1.8953247-0.3661499C7.812561,30.9455566,7.782959,30.8638916,7.7565918,30.7652588z   M14.0820313,41.0639038l-4.9382324-3.5425415l0.0500488-5.2213745c1.215332,0.1702271,3.175415,0.3330078,6.3499756,0.451416  c-0.1635132,0.7034302-0.258667,1.4326782-0.258667,2.1851196c0,0.678833,0.0720825,1.3408203,0.2059326,1.9804688  L14.0820313,41.0639038z M24.9453125,43.5966797c-4.7753906,0-8.6601563-3.8847656-8.6601563-8.6601563  s3.8847656-8.6606445,8.6601563-8.6606445s8.6601563,3.8852539,8.6601563,8.6606445S29.7207031,43.5966797,24.9453125,43.5966797z   M38.7811279,36.4258423l-3.5823364,2.5967407l-0.7706299-2.2679443c0.112854-0.5895386,0.1773071-1.196167,0.1773071-1.8181152  c0-1.3555908-0.2833252-2.6453247-0.7896118-3.8172607c0.1135254,0.0003052,0.2382813,0.0013428,0.3482056,0.0013428  c2.1904907,0,3.6199951-0.0515747,4.5650635-0.1242065l0.0303955,3.1730957l-1.3093262,1.8910522l0.8222656,0.5693359  l0.5036621-0.727417L38.7811279,36.4258423z M39.7282104,30.8886719c0.6724854-0.1019287,0.831543-0.2144775,0.9290161-0.2861328  c0.5380859-0.3935547,0.6474609-1.9370117,0.6445313-3.1625977c-0.0029297-1.1430664-0.1191406-3.1416016-0.8642578-3.6826172  c-0.1293945-0.09375-0.4055786-0.1679077-0.7790527-0.2260132l-0.0360718-3.762207  c0.3310547,0.0543213,0.69104,0.1074219,1.1032104,0.1576538c0.321167,0.1733398,0.8768921,0.4508667,1.3525391,0.5919189v8.8577271  l-2.3321533,3.3683472L39.7282104,30.8886719z M43.9980469,18.9125977l-0.1289063,0.0092773l-0.109375,0.0703125  c-0.4794922,0.3115234-1.0429688,0.6000977-1.1982422,0.6171875c-0.1816406-0.0004883-0.8544922-0.2836914-1.4394531-0.6054688  l-0.1816406-0.0585938c-0.8638306-0.1029053-1.8299561-0.2769775-2.4932861-0.453186  c0.078125,0.0081787,0.1506348,0.0167236,0.2364502,0.0244751c0.8349609,0.0756836,2.0078125,0.1171875,3.3017578,0.1171875  c2.8223877,0,4.2914429-0.1264038,5.0651245-0.2782593C46.5943604,18.5797729,45.2955322,18.8239746,43.9980469,18.9125977z"/><text x="0" y="65" fill="#000000" font-size="5px" font-weight="bold" font-family="'Helvetica Neue', Helvetica, Arial-Unicode, Arial, Sans-serif">Created by ATOM</text><text x="0" y="70" fill="#000000" font-size="5px" font-weight="bold" font-family="'Helvetica Neue', Helvetica, Arial-Unicode, Arial, Sans-serif">from the Noun Project</text></svg>